<?xml version="1.0" encoding="iso-8859-1"?>
<!-- Generator: Adobe Illustrator 18.0.0, SVG Export Plug-In . SVG Version: 6.00 Build 0)  -->
<!DOCTYPE svg PUBLIC "-//W3C//DTD SVG 1.1//EN" "http://www.w3.org/Graphics/SVG/1.1/DTD/svg11.dtd">
<svg version="1.1" id="Capa_1" xmlns="http://www.w3.org/2000/svg" xmlns:xlink="http://www.w3.org/1999/xlink" x="0px" y="0px"
	 viewBox="0 0 425.158 425.158" style="enable-background:new 0 0 425.158 425.158;" xml:space="preserve" width="50" height="50">
<path d="M425.158,71.34c0-19.063-7.422-36.984-20.899-50.462c-27.819-27.817-73.089-27.814-100.915,0.008l-73.965,73.966
	l-20.812-40.635c-3.774-7.37-11.268-11.949-19.555-11.949c-7.752,0-14.775,3.966-18.785,10.608
	c-10.424,17.261-25.057,31.894-42.318,42.317c-6.916,4.177-10.876,11.491-10.594,19.565c0.283,8.074,4.745,15.093,11.936,18.776
	l40.634,20.811L21.055,303.176c-0.05,0.05-0.104,0.096-0.154,0.147C7.423,316.801,0,334.721,0,353.781s7.423,36.98,20.901,50.459
	c13.478,13.478,31.398,20.9,50.458,20.9c19.061,0,36.981-7.423,50.459-20.9c0.001-0.001,0.002-0.002,0.003-0.003l0.001,0.001
	l148.144-148.144l19.06,37.216c3.774,7.37,11.268,11.949,19.555,11.949c7.752,0,14.774-3.966,18.786-10.607
	c10.423-17.261,25.057-31.895,42.317-42.318c6.916-4.176,10.876-11.49,10.594-19.564c-0.282-8.074-4.744-15.094-11.935-18.776
	l-37.215-19.06l73.131-73.131C417.736,108.323,425.158,90.402,425.158,71.34z M313.057,185.678l-18.017-9.228
	c0.835-2.15,1.287-4.452,1.287-6.828c0-5.032-1.96-9.764-5.519-13.322l-24.549-24.549c-3.559-3.558-8.29-5.518-13.322-5.518
	c-2.375,0-4.678,0.451-6.827,1.287l-7.684-15.003c20.998-9.185,45.783-4.74,62.358,11.835
	C316.999,140.567,321.615,164.915,313.057,185.678z M247.366,205.173c-1.452,1.445-3.977,1.445-5.426-0.003l-24.549-24.551
	c-0.725-0.725-1.125-1.688-1.125-2.714c0-1.026,0.399-1.99,1.125-2.715l32.832-32.832c0.726-0.726,1.69-1.125,2.715-1.125
	s1.99,0.399,2.715,1.125l24.549,24.549c0.725,0.725,1.125,1.689,1.125,2.715s-0.4,1.99-1.125,2.715L247.366,205.173z
	 M132.306,114.234c-0.043-1.229,0.198-4.293,3.357-6.201c19.335-11.676,35.728-28.068,47.404-47.403
	c1.832-3.034,4.768-3.362,5.945-3.362c2.671,0,4.99,1.416,6.205,3.787l38.982,76.114l-4.412,4.412l-17.585,17.584l-76.113-38.981
	C132.804,118.502,132.349,115.463,132.306,114.234z M15,353.781c0-15.054,5.862-29.207,16.507-39.853
	c0.001-0.001,0.002-0.001,0.002-0.002l0.004,0.004l0.168-0.168c10.625-10.537,24.704-16.341,39.678-16.341
	c15.054,0,29.208,5.862,39.853,16.508c5.179,5.179,9.122,11.129,11.86,17.479l-16.301,16.307
	c-5.461-11.142-16.923-18.831-30.148-18.831c-22.083,0-40.05,17.966-40.05,40.05c0,16.246,8.089,30.629,20.442,39.363
	c-9.563-2.499-18.333-7.49-25.507-14.664C20.862,382.988,15,368.835,15,353.781z M127.423,348.274
	c1.503,15.437-3.334,31.374-14.498,43.557l-0.052-0.061c-7.822,6.677-17.806,10.354-28.111,10.354
	c-18.301,0-33.19-14.889-33.19-33.189c0-13.813,11.237-25.05,25.05-25.05c10.229,0,18.55,8.317,18.55,18.54v18.111L127.423,348.274z
	 M121.818,303.322c-13.478-13.478-31.398-20.9-50.459-20.9c-3.003,0-5.972,0.205-8.905,0.568l58.282-58.282
	c21.987-21.826,57.628-21.78,79.552,0.145c21.972,21.972,21.974,57.723,0.005,79.699l-58.187,58.187
	C144.759,341.609,138.009,319.513,121.818,303.322z M231.183,273.663c2.652-21.131-4.098-43.227-20.288-59.418
	c-16.188-16.187-38.28-22.937-59.407-20.289l32.426-32.426l18.64,9.546c-0.836,2.15-1.287,4.453-1.287,6.829
	c0,5.032,1.96,9.764,5.519,13.32l24.549,24.551c3.559,3.558,8.29,5.517,13.322,5.517c2.375,0,4.678-0.451,6.828-1.286l11.298,22.059
	L231.183,273.663z M365.287,233.293c0.043,1.229-0.198,4.292-3.357,6.2c-19.336,11.677-35.728,28.068-47.404,47.404
	c-1.832,3.033-4.768,3.361-5.945,3.361c-2.671,0-4.991-1.416-6.205-3.787l-38.981-76.113l21.997-21.997l76.114,38.982
	C364.79,229.025,365.244,232.065,365.287,233.293z M331.715,173.13c2.66-21.379-4.415-43.476-20.324-59.385
	c-15.976-15.976-37.983-23.045-59.315-20.377l61.874-61.875c21.976-21.978,57.729-21.979,79.702-0.008
	c10.644,10.644,16.506,24.798,16.506,39.854c0,15.056-5.862,29.21-16.506,39.854L331.715,173.13z"/>
<g>
</g>
<g>
</g>
<g>
</g>
<g>
</g>
<g>
</g>
<g>
</g>
<g>
</g>
<g>
</g>
<g>
</g>
<g>
</g>
<g>
</g>
<g>
</g>
<g>
</g>
<g>
</g>
<g>
</g>
</svg>
